<?xml version="1.0" encoding="UTF-8"?>
<svg version="1.1" xmlns="http://www.w3.org/2000/svg" width="225" height="225">
<path d="M0 0 C74.25 0 148.5 0 225 0 C225 74.25 225 148.5 225 225 C150.75 225 76.5 225 0 225 C0 150.75 0 76.5 0 0 Z " fill="#010101" transform="translate(0,0)"/>
<path d="M0 0 C10.89 0 21.78 0 33 0 C33 74.25 33 148.5 33 225 C-0.99 225 -34.98 225 -70 225 C-68.02 224.01 -68.02 224.01 -66 223 C-61.58421897 219.13594257 -61.58421897 219.13594257 -59.76171875 213.828125 C-59.72498047 212.55195313 -59.72498047 212.55195313 -59.6875 211.25 C-59.65011719 210.40953125 -59.61273438 209.5690625 -59.57421875 208.703125 C-60.54440892 202.54375252 -65.59002164 198.12900405 -69.87011719 193.91870117 C-70.44616196 193.34397064 -71.02220673 192.76924011 -71.6157074 192.17709351 C-73.50485657 190.29439221 -75.40087958 188.41877295 -77.296875 186.54296875 C-78.61446171 185.23165654 -79.93153187 183.91982511 -81.24810791 182.60749817 C-84.70277197 179.16609603 -88.16297299 175.7303205 -91.62481689 172.29614258 C-97.18115179 166.78305323 -102.73063777 161.26308895 -108.27701569 155.73998451 C-110.2180283 153.80922907 -112.16239652 151.88189988 -114.1071167 149.95487976 C-115.28734406 148.78147516 -116.46746478 147.60796328 -117.64746094 146.43432617 C-118.46557503 145.62631813 -118.46557503 145.62631813 -119.30021667 144.80198669 C-120.55256049 143.55351143 -121.77938902 142.27951723 -123 141 C-123 140.67 -123 140.34 -123 140 C-121.13021484 139.97873047 -121.13021484 139.97873047 -119.22265625 139.95703125 C-97.17240526 139.44717367 -79.97108108 133.88746285 -64 118 C-63.37480469 117.40960938 -62.74960938 116.81921875 -62.10546875 116.2109375 C-58.01819577 112.02217467 -55.37774819 107.30157959 -52.75 102.125 C-52.4204834 101.47716553 -52.0909668 100.82933105 -51.75146484 100.16186523 C-49.94020047 96.43047533 -48.5542236 92.72048965 -47.38769531 88.73779297 C-46.99436005 87.40238968 -46.99436005 87.40238968 -46.59307861 86.04000854 C-46.39736267 85.36680573 -46.20164673 84.69360291 -46 84 C-45.4097554 83.99413376 -44.8195108 83.98826752 -44.21138 83.98222351 C-38.06288736 83.91824332 -31.9149159 83.8338116 -25.7668457 83.73754883 C-23.47297033 83.70431366 -21.17901346 83.67627736 -18.88500977 83.65356445 C-15.58574727 83.61999326 -12.2872307 83.56767465 -8.98828125 83.51171875 C-7.96414627 83.50532883 -6.94001129 83.4989389 -5.88484192 83.49235535 C1.05760549 83.38105402 1.05760549 83.38105402 7 80 C9.5220567 77.27883357 10.89297466 75.30948648 11.19921875 71.5625 C10.96744139 67.1123746 10.46175591 64.61567454 7.75 61 C1.81357979 56.68260348 -3.42644187 56.66987853 -10.55078125 56.5859375 C-11.56472458 56.56657135 -12.57866791 56.5472052 -13.62333679 56.5272522 C-16.85297303 56.46760574 -20.0826452 56.42113049 -23.3125 56.375 C-25.50587468 56.33680651 -27.69923458 56.29775398 -29.89257812 56.2578125 C-35.2615873 56.16191652 -40.63068591 56.07682545 -46 56 C-46.32323242 55.06115967 -46.64646484 54.12231934 -46.97949219 53.1550293 C-47.63159668 51.28971558 -47.63159668 51.28971558 -48.296875 49.38671875 C-48.93641113 47.54533325 -48.93641113 47.54533325 -49.58886719 45.66674805 C-51.28132589 41.26899075 -53.40053216 37.27279652 -55.765625 33.20703125 C-57 31 -57 31 -58 28 C-57.27416718 27.99413376 -56.54833435 27.98826752 -55.80050659 27.98222351 C-48.94445157 27.92420656 -42.08867286 27.8520784 -35.23293877 27.76428509 C-31.7087014 27.7196471 -28.18457788 27.68037703 -24.66015625 27.65356445 C-20.60387289 27.62246652 -16.5482046 27.56768038 -12.4921875 27.51171875 C-11.23260223 27.50532883 -9.97301697 27.4989389 -8.67526245 27.49235535 C-6.90410568 27.46266411 -6.90410568 27.46266411 -5.09716797 27.43237305 C-4.06236298 27.42126999 -3.02755798 27.41016693 -1.96139526 27.39872742 C2.37143028 26.81534824 5.7716173 25.27329131 8.81640625 22.1171875 C10.9616495 18.2798217 11.21257356 14.34061495 11 10 C9.17256133 5.81211972 7.33964853 3.92876775 3.25 2.125 C2.1775 1.75375 1.105 1.3825 0 1 C0 0.67 0 0.34 0 0 Z " fill="#FEFEFE" transform="translate(192,0)"/>
<path d="M0 0 C10.89 0 21.78 0 33 0 C31.02 0.99 31.02 0.99 29 2 C24.46658107 5.21549228 24.46658107 5.21549228 22 10 C21.53774099 14.77667642 21.50026221 17.01903323 23.6875 21.3125 C26.62621446 24.72776275 28.77885248 26.73849095 33.40151978 27.28274536 C36.46482449 27.41114337 39.51602656 27.44107944 42.58203125 27.44140625 C43.71017746 27.45461411 44.83832367 27.46782196 46.00065613 27.48143005 C49.60462901 27.52229425 53.20834807 27.54397769 56.8125 27.5625 C60.40586144 27.58634815 63.99898594 27.61459763 67.59220886 27.65428162 C69.82594063 27.67847732 72.05979697 27.69346668 74.2936554 27.69789124 C86.62950585 27.82056633 98.1864325 31.05430585 107.375 39.75 C111.126308 43.81522499 117 50.22021096 117 56 C115.95065781 56.00364563 114.90131561 56.00729126 113.82017517 56.01104736 C103.91820599 56.04803142 94.01654683 56.10584147 84.1148138 56.18390274 C79.0245277 56.22336693 73.93441432 56.25556067 68.84399414 56.27099609 C63.92897102 56.28616955 59.01442277 56.32062757 54.09961128 56.36830902 C52.22703752 56.38311567 50.35439595 56.3910406 48.48176384 56.39188385 C45.85313507 56.39425743 43.22581448 56.42136771 40.59741211 56.45410156 C39.82776627 56.4490712 39.05812042 56.44404083 38.26515198 56.43885803 C32.77674533 56.54420634 29.50504662 57.81989366 25 61 C22.50418276 65.34755261 21.25571601 69.00266462 22 74 C24.12132456 77.86384117 26.15103557 80.82107394 30 83 C32.88409068 83.30391231 35.55564831 83.43755356 38.44042969 83.43237305 C39.7141468 83.44766052 39.7141468 83.44766052 41.01359558 83.46325684 C43.81642224 83.49341755 46.6189073 83.50265746 49.421875 83.51171875 C51.36673115 83.52856316 53.31157639 83.54671307 55.25640869 83.56611633 C60.37242221 83.6136483 65.48839154 83.64343703 70.60455322 83.66955566 C75.82630138 83.69934501 81.04789718 83.74588093 86.26953125 83.79101562 C96.51294119 83.87708515 106.75638246 83.94441426 117 84 C113.70939503 94.1772095 107.81504514 102.29787894 98.2890625 107.47265625 C88.86308407 111.90157488 81.25325865 113.28858484 70.8984375 113.30859375 C68.52864321 113.33373836 66.1588516 113.35913659 63.7890625 113.38476562 C60.07162076 113.41356964 56.35422526 113.43760447 52.63671875 113.45629883 C49.03622538 113.4779227 45.43625158 113.51734117 41.8359375 113.55859375 C40.16862076 113.55876747 40.16862076 113.55876747 38.46762085 113.5589447 C36.91042831 113.57895287 36.91042831 113.57895287 35.32177734 113.59936523 C34.41245453 113.60443588 33.50313171 113.60950653 32.56625366 113.61473083 C29.43277793 114.0851565 27.55914082 115.15646869 25 117 C22.43747441 120.79960691 21.32878653 124.31689269 21.525527 128.94633961 C23.19182274 136.15856361 31.05372268 142.35047655 36.09741211 147.38793945 C36.88683701 148.18408157 37.6762619 148.98022369 38.48960876 149.80049133 C41.0802736 152.41003398 43.67830236 155.01208311 46.27734375 157.61328125 C48.09060555 159.43297489 49.90371869 161.25281668 51.71669006 163.07279968 C55.50834246 166.87639696 59.30402953 170.67590859 63.10229492 174.47290039 C67.48312977 178.85253138 71.85265669 183.24322493 76.21709627 187.63918906 C80.43280469 191.88424988 84.65955517 196.11813566 88.89056587 200.34795189 C90.68271934 202.14246332 92.47163553 203.94021391 94.2572155 205.74126625 C96.75314025 208.25679769 99.2614334 210.75932665 101.77319336 213.2590332 C102.50536072 214.00243958 103.23752808 214.74584595 103.99188232 215.51177979 C108.10140416 219.57140428 111.5119233 222.13219894 117 224 C117 224.33 117 224.66 117 225 C78.39 225 39.78 225 0 225 C0 150.75 0 76.5 0 0 Z " fill="#FDFDFD" transform="translate(0,0)"/>
</svg>
